<svg width="161" height="160" viewBox="0 0 161 160" fill="none" xmlns="http://www.w3.org/2000/svg">
<g clip-path="url(#clip0_2248_24798)">
<path d="M84.6588 0C106.051 1.72839 130.649 8.65185 149.365 36.3852C163.726 57.6593 164.511 89.6839 151.661 112.775C130.595 150.632 102.046 163.546 68.7872 159.19C50.3724 156.78 33.2317 148.059 19.0687 131.284C-6.80291 100.622 -5.6276 54.3309 24.8712 23.1901C39.2218 8.53827 60.565 0.00987654 84.6588 0Z" fill="url(#paint0_linear_2248_24798)" fill-opacity="0.3"/>
<path d="M68.6749 159.193C84.6404 161.282 99.5194 159.391 113.011 152.67C111.119 142.141 108.043 127.045 105.855 108.536C104.398 96.2055 97.8897 78.329 89.5391 75.3216C83.1046 72.9956 64.6058 67.1882 46.1564 76.8228C27.712 86.4574 36.2749 128.24 37.633 131.766C38.2107 133.257 36.986 139.564 35.549 146.502C45.786 153.578 56.9712 157.662 68.6749 159.193Z" fill="url(#paint1_radial_2248_24798)" stroke="#0050FB" stroke-width="0.928395" stroke-miterlimit="10"/>
<path d="M81.316 31.326C73.9531 30.7433 64.3679 39.2717 64.3679 39.2717C64.3679 39.2717 62.3185 48.042 62.5506 58.2099C58.5802 58.8964 58.0518 54.847 55.4345 49.3112C52.4271 42.9507 49.0741 35.7605 52.758 27.0001C59.8741 10.0618 75.9234 12.3383 75.9234 12.3383C75.9234 12.3383 89.716 7.94821 97.4543 14.9556C112.299 28.3976 100.284 39.1828 100.284 39.1828C100.284 39.1828 97.4444 31.5581 81.316 31.321V31.326Z" fill="#FFB500"/>
<path d="M81.4994 74.773C81.4994 74.773 89.5142 81.0792 81.3167 85.4199C73.1241 89.7607 59.5439 78.694 58.6649 74.0323C58.2698 71.9434 65.1389 66.7829 64.0871 59.0693C63.2822 53.1631 81.4994 74.773 81.4994 74.773Z" fill="#A36F6A"/>
<path d="M100.01 39.9204C98.5924 48.3007 94.0937 70.3106 84.4542 73.4513C76.5776 76.0192 71.8566 72.1427 71.8566 72.1427C59.8369 66.2069 60.5184 49.9204 64.3702 39.2785C66.0245 36.4093 71.585 30.9772 79.664 30.4291C95.3085 29.2488 100.775 36.2612 100.015 39.9204H100.01Z" fill="#A36F6A"/>
<path d="M75.72 58.2578C75.6608 61.1171 77.6558 62.7911 78.9299 63.5714" stroke="#002E9C" stroke-width="1.0321" stroke-linecap="round" stroke-linejoin="round"/>
<path d="M86.7421 49.5781C86.5347 51.2176 87.0433 54.7041 87.5471 57.3411C88.0113 59.7757 87.0384 60.2596 85.5224 60.1954C84.0063 60.1312 82.8359 59.7263 82.8359 59.7263" stroke="#002E9C" stroke-width="1.0321" stroke-linecap="round" stroke-linejoin="round"/>
<path d="M79.12 47.6568C79.354 46.5327 78.9506 45.498 78.219 45.3457C77.4874 45.1933 76.7046 45.9811 76.4706 47.1052C76.2366 48.2294 76.64 49.2641 77.3716 49.4164C78.1032 49.5687 78.886 48.7809 79.12 47.6568Z" fill="#000D43"/>
<path d="M94.2621 50.3757C94.4756 49.3504 94.0923 48.4034 93.4061 48.2605C92.7199 48.1177 91.9906 48.833 91.7771 49.8584C91.5637 50.8837 91.9469 51.8307 92.6331 51.9735C93.3193 52.1164 94.0487 51.401 94.2621 50.3757Z" fill="#000D43"/>
<path d="M79.7426 41.3737C77.3525 40.0305 74.75 41.2749 74.75 41.2749" stroke="#FFB500" stroke-width="1.17531" stroke-miterlimit="10" stroke-linecap="round"/>
<path d="M96.8584 46.3038C95.0361 44.7532 92.6016 45.3853 92.6016 45.3853" stroke="#FFB500" stroke-width="1.04691" stroke-miterlimit="10" stroke-linecap="round"/>
<path d="M76.4124 74.418C76.4124 74.418 75.5877 78.6748 77.2124 80.2303" stroke="#002E9C" stroke-width="1.0321" stroke-linecap="round" stroke-linejoin="round"/>
<path d="M100.196 38.6094C98.7789 46.9896 94.7295 70.1007 85.09 73.2415C79.5196 75.0588 75.2085 73.755 73.1641 72.8316" stroke="#002E9C" stroke-width="1.0321" stroke-linecap="round" stroke-linejoin="round"/>
<path d="M85.0678 48.3132C86.0906 43.4003 83.3893 38.6826 79.0344 37.776C74.6795 36.8694 70.32 40.1171 69.2972 45.0301C68.2744 49.943 70.9757 54.6607 75.3306 55.5674C79.6855 56.474 84.045 53.2262 85.0678 48.3132Z" stroke="white" stroke-width="1.0321" stroke-linecap="round" stroke-linejoin="round"/>
<path d="M101.934 52.7366C103.234 48.0677 101.519 43.5119 98.1033 42.5608C94.6877 41.6097 90.8649 44.6236 89.5649 49.2924C88.2648 53.9612 89.9798 58.5171 93.3954 59.4682C96.811 60.4193 100.634 57.4054 101.934 52.7366Z" stroke="white" stroke-width="1.0321" stroke-linecap="round" stroke-linejoin="round"/>
<path d="M89.6356 48.475C89.2109 47.1861 85.8825 46.4898 85.2109 47.4429" stroke="white" stroke-width="1.0321" stroke-linejoin="round"/>
<path opacity="0.8" d="M140.289 82.3881L97.1977 83.4548L89.3162 145.983L55.7656 142.67L65.8446 35.2227L159.529 42.0622L140.289 82.3881Z" fill="url(#paint2_radial_2248_24798)"/>
<path d="M85.0316 101.864L112.434 129.267L115.14 130.521C115.516 130.694 115.901 130.309 115.728 129.933L114.474 127.227L87.0711 99.8246C86.5081 99.2616 85.5946 99.2616 85.0316 99.8246C84.4686 100.388 84.4686 101.301 85.0316 101.864Z" fill="white"/>
<path opacity="0.5" d="M34.4659 118.181C34.4659 118.181 40.3325 146.557 51.098 146.581C66.0264 146.621 78.1844 138.512 82.4807 137.11C96.9153 132.902 99.0683 130.794 99.9869 128.339C100.91 125.885 104.184 117.875 102.96 116.823C101.73 115.772 90.3918 114.72 88.5498 116.473C86.7079 118.226 84.0412 126.586 82.1992 127.638C80.3572 128.69 66.9844 128.685 55.0881 131.144C54.4758 124.828 51.7103 116.764 51.7103 116.764L34.4609 118.181H34.4659Z" fill="#0050FB"/>
<path d="M55.012 143.485C49.7626 143.475 45.1503 139.173 41.6836 131.06C39.1058 125.025 38.0293 118.917 38.0194 118.852L37.9453 118.413L56.0243 112.512L56.2021 112.966C56.3305 113.287 59.2194 120.724 60.0293 126.931C67.2737 125.648 73.97 125.055 78.8885 124.62C82.8095 124.275 85.9107 123.998 86.7749 123.569C87.7033 123.104 88.2811 121.697 88.8935 120.201C89.5009 118.719 90.133 117.183 91.2342 116.265C92.0786 115.564 94.6169 115.208 98.7799 115.208C103.363 115.208 110.735 115.751 111.871 116.601C113.689 117.964 112.316 122.65 111.333 124.936C110.069 127.885 106.706 129.993 90.9922 134.003C89.8861 134.319 88.2663 135.006 86.2169 135.875C79.5009 138.724 68.2564 143.489 55.1453 143.489H55.0169L55.012 143.485Z" fill="#A36F6A"/>
<path d="M55.7199 113.153C55.7199 113.153 58.8754 121.222 59.5767 127.533C73.1618 125.069 84.8952 125.079 87.0038 124.027C89.1075 122.975 89.4581 118.412 91.5618 116.659C92.3767 115.978 95.3544 115.721 98.7767 115.721C104.184 115.721 110.698 116.368 111.557 117.01C112.959 118.062 111.908 122.274 110.856 124.729C109.804 127.183 107.35 129.287 90.8606 133.499C85.9618 134.896 72.1347 142.97 55.1421 142.97C55.1026 142.97 55.0581 142.97 55.0186 142.97C42.7223 142.941 38.5297 118.763 38.5297 118.763L55.7199 113.148M56.3273 111.864L55.3989 112.166L38.2088 117.78L37.3594 118.057L37.5125 118.936C37.6902 119.958 42.0013 143.968 55.0137 143.998H55.1421C68.3569 143.998 79.6606 139.203 86.4162 136.343C88.4409 135.484 90.0458 134.808 91.1322 134.491C108.5 130.057 110.658 127.815 111.809 125.133C111.932 124.847 114.772 118.126 112.179 116.185C110.787 115.143 102.633 114.689 98.7767 114.689C92.3125 114.689 91.2853 115.543 90.9001 115.864C89.7001 116.862 89.0483 118.457 88.4112 119.998C87.8631 121.336 87.2952 122.719 86.5396 123.099C85.7594 123.489 82.5544 123.77 78.8409 124.101C74.031 124.526 67.5273 125.104 60.4606 126.324C59.5569 120.17 56.8014 113.084 56.6779 112.768L56.3223 111.859L56.3273 111.864Z" fill="#002E9C"/>
<path d="M139.334 83.0459C139.334 83.0459 139.378 83.0706 139.398 83.0854L138.129 82.2064C137.492 81.7669 136.712 81.5249 135.842 81.5397L100.124 83.194C97.5857 83.2385 96.2721 84.4483 95.9215 87.1644L88.8548 141.658C88.6227 143.441 88.277 144.987 89.4918 145.826L90.761 146.705C90.761 146.705 90.7215 146.671 90.6968 146.656C91.3437 147.125 92.1486 147.392 93.0523 147.377L128.771 146.755C131.309 146.71 133.65 144.473 134 141.757L141.067 87.2632C141.304 85.4459 140.588 83.8804 139.329 83.0508L139.334 83.0459Z" stroke="#002E9C" stroke-width="2.0642" stroke-miterlimit="10" stroke-linecap="round"/>
<path d="M135.846 81.5391L100.127 82.1613C97.589 82.2057 95.2433 84.4477 94.8927 87.1638L87.8261 141.658C87.594 143.44 88.2804 144.986 89.4952 145.825" stroke="#6800FF" stroke-width="2.0642" stroke-miterlimit="10" stroke-linecap="round"/>
<path d="M137.119 82.4147C139.657 82.3703 141.425 84.5382 141.074 87.2542L134.008 141.748C133.657 144.464 131.311 146.701 128.778 146.746L93.0594 147.368C90.5211 147.412 88.7483 145.249 89.0989 142.533L96.1656 88.0394C96.5162 85.3234 98.8619 83.0814 101.4 83.037L137.119 82.4147Z" fill="url(#paint3_linear_2248_24798)"/>
<path d="M122.096 111.427L121.735 111.066C121.444 110.775 120.975 110.775 120.688 111.066C120.397 111.358 120.397 111.827 120.688 112.113L121.049 112.474C121.113 112.538 121.167 112.607 121.207 112.686C121.384 113.017 121.33 113.437 121.049 113.718L117.765 117.002L116.866 117.901L115.943 118.824C115.883 118.883 115.849 118.962 115.844 119.051C115.844 119.14 115.868 119.214 115.928 119.279C115.987 119.338 116.091 119.372 116.229 119.372L119.33 119.407C119.454 119.422 119.552 119.392 119.631 119.313C119.646 119.298 119.661 119.279 119.671 119.264C119.676 119.254 119.681 119.244 119.686 119.234C119.686 119.229 119.696 119.219 119.696 119.214C119.705 119.2 119.71 119.18 119.71 119.16C119.71 119.14 119.72 119.116 119.72 119.091C119.72 119.007 119.691 118.933 119.626 118.874L118.807 118.054L122.091 114.77C123.009 113.851 123.009 112.35 122.091 111.432L122.096 111.427Z" fill="#944AFF"/>
<path d="M114.275 118.991C113.929 118.645 113.929 118.087 114.275 117.746L117.559 114.463L118.458 113.564L119.381 112.64C119.44 112.581 119.475 112.502 119.48 112.413C119.495 112.329 119.465 112.255 119.401 112.191C119.342 112.132 119.238 112.097 119.1 112.097L115.998 112.062C115.998 112.062 115.964 112.062 115.949 112.062C115.845 112.062 115.761 112.092 115.692 112.161C115.628 112.225 115.598 112.295 115.598 112.383C115.598 112.467 115.628 112.542 115.692 112.601L116.512 113.421L113.228 116.704C112.309 117.623 112.309 119.124 113.228 120.043L113.588 120.403C113.88 120.695 114.349 120.695 114.635 120.403C114.927 120.112 114.927 119.643 114.635 119.356L114.275 118.996V118.991Z" fill="#944AFF"/>
<path d="M138.132 82.2064C137.495 81.7669 136.715 81.5249 135.846 81.5397L100.127 82.1619C97.589 82.2064 95.2433 84.4483 94.8927 87.1644L87.8261 141.658C87.594 143.441 88.2804 144.987 89.4952 145.826L90.7643 146.705C89.5495 145.866 88.8631 144.32 89.0952 142.537L96.1619 88.0434C96.5125 85.3274 98.8582 83.0854 101.396 83.0409L137.115 82.4187C137.984 82.4039 138.764 82.6508 139.401 83.0854L138.132 82.2064Z" fill="#B07AFF"/>
<path d="M138.994 109.973C139.311 110.042 140.965 111.094 142.718 116.471C143.76 119.894 140.155 125.928 137.854 128.076C135.552 130.225 128.54 129.331 129.469 127.849C127.123 127.316 127.844 125.518 128.831 125.069C126.673 124.145 128.678 122.383 129.622 122.052C128.807 119.232 138.17 116.21 138.17 116.21" fill="#A36F6A"/>
<path d="M138.994 109.973C139.311 110.042 140.965 111.094 142.718 116.471C143.76 119.894 140.155 125.928 137.854 128.076C135.552 130.225 128.54 129.331 129.469 127.849C127.123 127.316 127.844 125.518 128.831 125.069C126.673 124.145 128.678 122.383 129.622 122.052C128.807 119.232 138.17 116.21 138.17 116.21" stroke="#002E9C" stroke-width="1.0321" stroke-miterlimit="10" stroke-linecap="round"/>
<path d="M138.739 119.73L129.633 122.056" stroke="#002E9C" stroke-width="1.0321" stroke-miterlimit="10" stroke-linecap="round"/>
<path d="M137.416 123.719L128.828 125.072" stroke="#002E9C" stroke-width="1.0321" stroke-miterlimit="10" stroke-linecap="round"/>
<path d="M136.797 127.117L129.469 127.848" stroke="#002E9C" stroke-width="1.0321" stroke-miterlimit="10" stroke-linecap="round"/>
<path d="M53.8365 89.0641C57.4612 97.6912 58.5229 111.76 61.0908 119.533C44.4785 121.859 32.1328 119.079 32.1328 119.079C32.1328 119.079 34.1871 96.3727 36.281 88.506C38.3797 80.6394 50.2118 80.4418 53.8316 89.069L53.8365 89.0641Z" fill="#1E8FFF"/>
<path d="M53.8365 89.0641C57.4612 97.6912 58.5229 111.76 61.0908 119.533C44.4785 121.859 32.1328 119.079 32.1328 119.079C32.1328 119.079 34.1871 96.3727 36.281 88.506C38.3797 80.6394 50.2118 80.4418 53.8316 89.069L53.8365 89.0641Z" fill="#1E8FFF"/>
<path d="M53.8365 89.0643C57.4612 97.6915 58.5229 111.761 61.0908 119.533C44.4785 121.859 32.1328 119.079 32.1328 119.079C32.1328 119.079 34.1871 96.373 36.281 88.5063C36.676 87.0297 38.1476 84.7878 39.1057 83.8594" fill="#1E8FFF"/>
<path d="M53.8365 89.0643C57.4612 97.6915 58.5229 111.761 61.0908 119.533C44.4785 121.859 32.1328 119.079 32.1328 119.079C32.1328 119.079 34.1871 96.373 36.281 88.5063C36.676 87.0297 38.1476 84.7878 39.1057 83.8594" fill="#1E8FFF"/>
<path d="M53.8365 89.0643C57.4612 97.6915 58.5229 111.761 61.0908 119.533C44.4785 121.859 32.1328 119.079 32.1328 119.079C32.1328 119.079 34.1871 96.373 36.281 88.5063C36.676 87.0297 38.1476 84.7878 39.1057 83.8594" stroke="#0050FB" stroke-width="1.0321" stroke-miterlimit="10" stroke-linecap="round"/>
<path d="M75.4052 12.781C74.6545 11.9168 74.3138 10.7168 74.4916 9.58594C75.6471 9.72421 76.5904 10.8699 76.5015 12.0353C77.1237 11.0872 78.2052 10.4551 79.336 10.3909C78.7385 11.4773 77.7657 12.3563 76.6299 12.8452" fill="#FFB500"/>
<path d="M101.517 37.6379C102.248 36.4528 100.105 22.3984 100.105 22.3984L60.6875 23.4947L63.4727 35.0355C63.4727 35.0355 65.0875 37.717 66.164 39.6429C66.648 40.5071 66.9739 41.3367 67.3492 41.3021C69.0381 41.1491 68.085 37.1737 67.5714 35.396C67.6011 35.3812 67.6307 35.3713 67.6603 35.3565C68.0356 36.1466 68.6677 37.2379 69.2653 37.2281C69.9369 37.2182 70.3122 35.4108 70.4752 34.3688C70.564 34.3441 70.6579 34.3194 70.7468 34.2947C71.0381 35.2528 71.6949 36.917 72.6875 36.6454C74.0653 36.27 74.6579 33.717 74.6579 33.717C75.0875 34.2256 75.9517 35.6972 76.9344 35.4108C77.7295 35.1836 77.6011 33.154 77.5319 32.5515C77.5319 32.5515 77.5418 32.5515 77.5468 32.5515C77.6653 33.0207 78.011 34.6108 78.7418 34.7441C79.7789 34.9367 80.0752 32.4775 80.1838 31.6577C80.1937 31.6577 80.2036 31.6528 80.2134 31.6478C80.2233 32.4478 80.2431 35.0157 80.9789 35.2972C81.448 35.475 82.5097 32.8429 83.0431 30.591C83.0579 30.6009 83.0727 30.6108 83.0875 30.6207C83.211 32.8676 84.327 36.8083 85.3344 36.7244C86.1838 36.6552 86.2184 33.6725 86.2332 33.1491C86.3221 33.7021 86.5789 36.6207 87.6999 36.4083C88.49 36.2602 88.8307 34.3984 88.9196 34.117C88.8603 34.5416 88.3616 37.3515 89.211 37.5984C90.1937 37.8799 91.3542 36.3836 91.7789 35.87C91.7789 35.87 92.6233 38.8775 94.0011 39.2478C95.2159 39.5787 95.7344 37.0305 95.8381 36.4182C95.8579 36.4281 95.8826 36.433 95.9023 36.4429C96.0801 37.0898 96.811 39.5342 97.6258 39.5491C98.3369 39.5589 98.8258 38.2157 99.0233 37.5491C99.0875 37.5688 99.1517 37.5935 99.211 37.6133C99.3789 38.3491 99.7295 41.0454 101.162 40.833C101.754 40.6503 100.796 38.8231 101.527 37.6379H101.517Z" fill="#FFB500"/>
<path d="M101.329 38.0597C103.897 34.9634 109.457 25.8326 97.4521 14.9634C89.7138 7.95602 75.9212 12.3461 75.9212 12.3461C75.9212 12.3461 59.8719 10.0696 52.7558 27.0079C49.0768 35.7684 52.425 42.9585 55.4324 49.319C58.0496 54.8548 64.3657 39.2795 64.3657 39.2795C64.3657 39.2795 64.7558 38.9338 65.4373 38.3856C65.6892 38.8202 65.9311 39.2498 66.1533 39.6449C66.6373 40.5091 66.9632 41.3387 67.3385 41.3042C68.7213 41.1807 68.3311 38.4943 67.8669 36.5536C67.9706 36.4795 68.0793 36.4054 68.183 36.3313C68.5089 36.8301 68.8891 37.24 69.2546 37.235C69.8225 37.2252 70.178 35.9363 70.3706 34.9042C70.5237 34.8103 70.6817 34.7165 70.8398 34.6227C71.1706 35.5856 71.7879 36.8943 72.6768 36.6523C74.0546 36.277 74.6472 33.7239 74.6472 33.7239C75.0768 34.2326 75.941 35.7042 76.9237 35.4177C77.7188 35.1906 77.5904 33.161 77.5212 32.5585C77.5212 32.5585 77.5311 32.5585 77.5361 32.5585C77.6546 33.0276 78.0003 34.6177 78.7311 34.7511C79.7682 34.9437 80.0645 32.4844 80.1731 31.6647C80.183 31.6647 80.1929 31.6597 80.2027 31.6548C80.2126 32.4548 80.2324 35.0227 80.9682 35.3042C81.383 35.4622 82.262 33.4177 82.8299 31.3782C82.9385 31.3832 83.0422 31.3931 83.1509 31.398C83.4373 33.6696 84.4249 36.8005 85.3188 36.7313C86.1682 36.6622 86.2027 33.6795 86.2175 33.156C86.3064 33.7091 86.5632 36.6276 87.6842 36.4153C88.4743 36.2671 88.8151 34.4005 88.904 34.1239C88.8447 34.5486 88.3459 37.3585 89.1953 37.6054C90.178 37.8869 91.3385 36.3906 91.7632 35.877C91.7632 35.877 92.6077 38.8844 93.9854 39.2548C95.2003 39.5856 95.7188 37.0375 95.8225 36.4252C95.8422 36.435 95.8669 36.44 95.8867 36.4498C96.0645 37.0968 96.7953 39.5412 97.6101 39.556C98.3212 39.5659 98.8101 38.2227 99.0077 37.556C99.0719 37.5758 99.1361 37.6005 99.1953 37.6202C99.3632 38.356 99.7138 41.0523 101.146 40.84C101.674 40.677 100.978 39.2252 101.324 38.0696L101.329 38.0597Z" fill="url(#paint4_radial_2248_24798)"/>
<path d="M66.3608 40.1417C66.3608 40.1417 64.0645 34.0281 59.6003 35.2726C54.0398 36.8232 57.783 45.0158 59.9706 46.759C61.8126 48.2257 64.3953 46.4282 64.3953 46.4282L66.3558 40.1417H66.3608Z" fill="#A36F6A"/>
<path d="M61.7241 38.5C58.9932 38.9494 59.1117 42.9543 62.9932 44.1691" stroke="#002E9C" stroke-width="1.0321" stroke-linecap="round" stroke-linejoin="round"/>
<path d="M58.6328 39.6655C58.9834 38.0853 60.4649 38.0656 60.9242 38.1396C62.2427 38.3421 63.0427 39.2211 63.5118 40.0458" stroke="#002E9C" stroke-width="1.0321" stroke-linecap="round" stroke-linejoin="round"/>
<g opacity="0.8">
<path d="M129.602 66.5837C131.888 66.9886 132.214 67.3146 132.619 69.601C133.024 67.3146 133.35 66.9886 135.636 66.5837C133.35 66.1788 133.024 65.8528 132.619 63.5664C132.214 65.8528 131.888 66.1788 129.602 66.5837Z" fill="white"/>
</g>
<g opacity="0.8">
<path d="M17.4141 98.0257C20.2684 98.5294 20.6783 98.9393 21.182 101.794C21.6857 98.9393 22.0955 98.5294 24.9499 98.0257C22.0955 97.522 21.6857 97.1121 21.182 94.2578C20.6783 97.1121 20.2684 97.522 17.4141 98.0257Z" fill="white"/>
</g>
<path d="M141.086 70.8432C145.333 71.5938 145.94 72.2012 146.691 76.4482C147.441 72.2012 148.049 71.5938 152.296 70.8432C148.049 70.0926 147.441 69.4852 146.691 65.2383C145.94 69.4852 145.333 70.0926 141.086 70.8432Z" fill="white"/>
</g>
<defs>
<linearGradient id="paint0_linear_2248_24798" x1="80.7498" y1="0" x2="80.7498" y2="159.999" gradientUnits="userSpaceOnUse">
<stop stop-color="#0050FB" stop-opacity="0.6"/>
<stop offset="1" stop-color="#FA00FF"/>
</linearGradient>
<radialGradient id="paint1_radial_2248_24798" cx="0" cy="0" r="1" gradientUnits="userSpaceOnUse" gradientTransform="translate(100.502 118.517) scale(41.8469 41.8469)">
<stop stop-color="#E17DE4"/>
<stop offset="1" stop-color="#1E8FFF"/>
</radialGradient>
<radialGradient id="paint2_radial_2248_24798" cx="0" cy="0" r="1" gradientUnits="userSpaceOnUse" gradientTransform="translate(106.705 104.297) rotate(-179.99) scale(46.2222 46.2222)">
<stop stop-color="#D64CDB"/>
<stop offset="1" stop-color="#FF5F5F" stop-opacity="0"/>
</radialGradient>
<linearGradient id="paint3_linear_2248_24798" x1="87.6174" y1="74.3752" x2="131.415" y2="138.983" gradientUnits="userSpaceOnUse">
<stop stop-color="#4C25FF"/>
<stop offset="1" stop-color="#6800FF"/>
</linearGradient>
<radialGradient id="paint4_radial_2248_24798" cx="0" cy="0" r="1" gradientUnits="userSpaceOnUse" gradientTransform="translate(91.2941 45.7091) scale(31.7728 31.7728)">
<stop stop-color="#EBA6ED"/>
<stop offset="1" stop-color="#FFB500"/>
</radialGradient>
<clipPath id="clip0_2248_24798">
<rect width="160" height="160" fill="white" transform="translate(0.75)"/>
</clipPath>
</defs>
</svg>
