<svg width="161" height="160" viewBox="0 0 161 160" fill="none" xmlns="http://www.w3.org/2000/svg">
<g clip-path="url(#clip0_2315_7521)">
<path d="M85.6281 159.867C64.1021 160.845 38.7738 157.063 16.8528 131.912C0.0379499 112.618 -4.52501 80.9588 5.55894 56.4453C22.0873 16.2576 49.0157 -0.132527 82.67 0.000806456C101.307 0.0748805 119.416 6.56871 135.505 21.428C164.907 48.5835 169.194 94.6379 142.477 129.354C129.905 145.69 109.643 156.83 85.6281 159.867Z" fill="url(#paint0_linear_2315_7521)" fill-opacity="0.7"/>
<path d="M85.6276 159.865C66.077 160.749 43.3856 157.712 22.9609 138.3V133.949H138.605C125.939 147.767 107.312 157.12 85.6276 159.86V159.865Z" fill="#4F31E8"/>
<path d="M126.218 110.828H112.352V133.949H126.218V110.828Z" fill="url(#paint1_linear_2315_7521)"/>
<path d="M121.687 111.442C121.687 113.21 120.61 114.642 119.277 114.642C117.949 114.642 116.867 113.21 116.867 111.442C116.867 109.674 117.944 108.242 119.277 108.242C120.605 108.242 121.687 109.674 121.687 111.442Z" fill="#06022D" stroke="#06022D" stroke-width="0.320988" stroke-miterlimit="10"/>
<path d="M127.826 110.828H126.211V133.949H127.826V110.828Z" fill="#6341FF"/>
<path d="M130.243 131.855H100.727V133.949H130.243V131.855Z" fill="#B4A3FF"/>
<path d="M137.571 131.855H130.242V133.949H137.571V131.855Z" fill="#6341FF"/>
<path d="M159.296 40.5625H84.0468C83.5205 40.5625 83.0938 40.9892 83.0938 41.5156V109.876C83.0938 110.402 83.5205 110.829 84.0468 110.829H159.296C159.823 110.829 160.249 110.402 160.249 109.876V41.5156C160.249 40.9892 159.823 40.5625 159.296 40.5625Z" fill="#6341FF"/>
<path d="M157.562 40.5625H82.3125C81.7861 40.5625 81.3594 40.9892 81.3594 41.5156V109.876C81.3594 110.402 81.7861 110.829 82.3125 110.829H157.562C158.088 110.829 158.515 110.402 158.515 109.876V41.5156C158.515 40.9892 158.088 40.5625 157.562 40.5625Z" fill="url(#paint2_linear_2315_7521)"/>
<path d="M154.067 43.7266H84.5359C83.8732 43.7266 83.3359 44.2638 83.3359 44.9266V101.569C83.3359 102.231 83.8732 102.769 84.5359 102.769H154.067C154.73 102.769 155.267 102.231 155.267 101.569V44.9266C155.267 44.2638 154.73 43.7266 154.067 43.7266Z" fill="#B7DBFF"/>
<path d="M150.786 53.0625H87.4574C87.1055 53.0625 86.8203 53.3477 86.8203 53.6995V85.1465C86.8203 85.4983 87.1055 85.7835 87.4574 85.7835H150.786C151.138 85.7835 151.423 85.4983 151.423 85.1465V53.6995C151.423 53.3477 151.138 53.0625 150.786 53.0625Z" fill="white" stroke="#1E8FFF" stroke-width="0.795062" stroke-miterlimit="10"/>
<path d="M84.5261 43.7266H154.072C154.729 43.7266 155.267 44.2599 155.267 44.9216V49.8006H83.3359V44.9216C83.3359 44.2648 83.8693 43.7266 84.531 43.7266H84.5261Z" fill="url(#paint3_linear_2315_7521)"/>
<g opacity="0.5">
<path d="M87.4141 89.8789H151.424" stroke="#0059FC" stroke-width="3.17531" stroke-miterlimit="10"/>
</g>
<path d="M87.4141 93.2227H151.424" stroke="#8CB4FE" stroke-width="0.795062" stroke-miterlimit="10"/>
<path d="M87.4141 95.9648H151.424" stroke="#8CB4FE" stroke-width="0.795062" stroke-miterlimit="10"/>
<path d="M150.756 88.9865C150.885 88.9865 150.988 89.0902 150.988 89.2186V98.1025C150.988 98.2309 150.885 98.3346 150.756 98.3346H87.8425C87.7141 98.3346 87.6104 98.2309 87.6104 98.1025V89.2186C87.6104 89.0902 87.7141 88.9865 87.8425 88.9865H150.756ZM150.756 88.1914H87.8425C87.2746 88.1914 86.8203 88.6507 86.8203 89.2136V98.0976C86.8203 98.6655 87.2796 99.1198 87.8425 99.1198H150.756C151.324 99.1198 151.778 98.6605 151.778 98.0976V89.2136C151.778 88.6457 151.319 88.1914 150.756 88.1914Z" fill="#0186FF"/>
<path opacity="0.5" d="M103.956 46.2227H86.6719V47.8819H103.956V46.2227Z" fill="#A0D0FF"/>
<path d="M117.32 53.0625V85.7835" stroke="#1E8FFF" stroke-width="0.795062" stroke-miterlimit="10"/>
<path d="M86.8203 69.4219H151.423" stroke="#1E8FFF" stroke-width="0.795062" stroke-miterlimit="10"/>
<path d="M122.523 66.3366C123.761 66.3366 124.765 65.1559 124.765 63.6995C124.765 62.2431 123.761 61.0625 122.523 61.0625C121.285 61.0625 120.281 62.2431 120.281 63.6995C120.281 65.1559 121.285 66.3366 122.523 66.3366Z" fill="#C600CC"/>
<path d="M128 79.2311C129.238 79.2311 130.242 78.0505 130.242 76.5941C130.242 75.1377 129.238 73.957 128 73.957C126.762 73.957 125.758 75.1377 125.758 76.5941C125.758 78.0505 126.762 79.2311 128 79.2311Z" fill="#A490FF"/>
<path d="M111.57 76.0045C112.808 76.0045 113.812 74.8239 113.812 73.3675C113.812 71.9111 112.808 70.7305 111.57 70.7305C110.332 70.7305 109.328 71.9111 109.328 73.3675C109.328 74.8239 110.332 76.0045 111.57 76.0045Z" fill="#A490FF"/>
<path d="M103.351 79.2311C104.59 79.2311 105.593 78.0505 105.593 76.5941C105.593 75.1377 104.59 73.957 103.351 73.957C102.113 73.957 101.109 75.1377 101.109 76.5941C101.109 78.0505 102.113 79.2311 103.351 79.2311Z" fill="#A490FF"/>
<path d="M107.734 82.4499C108.972 82.4499 109.976 81.2692 109.976 79.8128C109.976 78.3564 108.972 77.1758 107.734 77.1758C106.496 77.1758 105.492 78.3564 105.492 79.8128C105.492 81.2692 106.496 82.4499 107.734 82.4499Z" fill="#A490FF"/>
<path d="M107.734 63.1139C108.972 63.1139 109.976 61.9333 109.976 60.4769C109.976 59.0205 108.972 57.8398 107.734 57.8398C106.496 57.8398 105.492 59.0205 105.492 60.4769C105.492 61.9333 106.496 63.1139 107.734 63.1139Z" fill="#A490FF"/>
<path d="M99.5154 60.86C100.754 60.86 101.757 59.6794 101.757 58.223C101.757 56.7666 100.754 55.5859 99.5154 55.5859C98.2772 55.5859 97.2734 56.7666 97.2734 58.223C97.2734 59.6794 98.2772 60.86 99.5154 60.86Z" fill="#A490FF"/>
<path d="M155.273 102.14V44.4212C155.273 44.0721 154.99 43.7891 154.641 43.7891L84.3055 43.7891C83.9564 43.7891 83.6734 44.0721 83.6734 44.4212V102.14C83.6734 102.489 83.9564 102.772 84.3055 102.772H154.641C154.99 102.772 155.273 102.489 155.273 102.14Z" stroke="#7557FF" stroke-width="0.637037" stroke-linecap="round" stroke-linejoin="round"/>
<path d="M26.5078 85.2704L26.8288 84.6087C26.8634 84.5396 30.2115 77.5075 29.4411 68.4902C28.651 59.2458 34.893 34.7816 35.1597 33.7445L35.2387 33.4285L35.5597 33.3791C35.6189 33.3692 41.8313 32.4062 48.014 32.4062C55.8263 32.4062 60.2165 33.9025 61.0609 36.8507C63.1942 44.3223 63.8708 49.3001 64.493 56.9692C65.4214 59.6507 66.1621 61.2853 66.7053 62.4803C67.4165 64.0507 67.7769 64.8359 67.5992 66.0211C67.3473 67.7297 64.2263 68.3717 63.051 68.5593C62.3992 70.6235 59.3226 79.8581 56.2757 80.8359C55.9053 80.9544 55.5251 81.0137 55.135 81.0137C53.7374 81.0137 52.4683 80.2383 51.3424 79.5519C50.414 78.984 49.535 78.4507 48.7745 78.4507C48.6016 78.4507 48.4387 78.4754 48.2807 78.5346C46.8288 79.0532 46.4436 83.3593 46.5374 85.9519L46.5572 86.4951L26.5078 85.2655V85.2704Z" fill="#B18078"/>
<path d="M48.0187 32.9038C53.8163 32.9038 59.6582 33.7433 60.5866 36.9927C62.7447 44.5482 63.3965 49.5606 64.0039 57.0766C66.1619 63.3285 67.3817 64.1038 67.1052 65.9507C66.8632 67.5754 62.6656 68.1137 62.6656 68.1137C62.6656 68.1137 59.2039 79.3779 56.1175 80.3655C55.7817 80.4742 55.4508 80.5186 55.1298 80.5186C52.7496 80.5186 50.6755 77.9556 48.7743 77.9556C48.5521 77.9556 48.3348 77.9902 48.1175 78.0692C45.7817 78.8988 46.0484 85.9704 46.0484 85.9704L27.278 84.8198C27.278 84.8198 30.7298 77.7137 29.9348 68.4445C29.1447 59.1754 35.6385 33.8667 35.6385 33.8667C35.6385 33.8667 41.8014 32.9038 48.0187 32.8988M48.0187 31.9112C41.7965 31.9112 35.7422 32.8495 35.4854 32.889L34.8434 32.9877L34.6805 33.6149C34.4138 34.6569 28.1521 59.1951 28.9471 68.5235C29.7027 77.3927 26.4187 84.3161 26.3842 84.3853L25.7422 85.7087L27.2089 85.7976L45.9792 86.9482L47.0656 87.0174L47.0261 85.926C46.9027 82.5433 47.5595 79.3038 48.4385 78.9927C48.5422 78.9581 48.6459 78.9384 48.7644 78.9384C49.3866 78.9384 50.2064 79.4371 51.0755 79.9704C52.2558 80.6914 53.5891 81.5063 55.1249 81.5063C55.5644 81.5063 55.994 81.4371 56.4138 81.3038C58.5323 80.6272 60.3052 76.9532 61.4558 74.2519C62.3842 72.0692 63.0953 69.9853 63.4163 68.9927C64.9471 68.726 67.8014 67.9754 68.078 66.089C68.2755 64.7606 67.8755 63.8766 67.1447 62.2717C66.6113 61.0914 65.8805 59.4865 64.9718 56.8643C64.3496 49.1951 63.6681 44.2025 61.5298 36.7112C60.6064 33.4766 56.1866 31.9062 48.0138 31.9062L48.0187 31.9112Z" fill="#1943A6"/>
<path d="M59.8218 58.1086C59.8931 57.195 59.488 56.4183 58.917 56.3737C58.3459 56.3292 57.8253 57.0337 57.754 57.9473C57.6828 58.8609 58.0879 59.6377 58.6589 59.6822C59.2299 59.7267 59.7506 59.0222 59.8218 58.1086Z" fill="#000D43"/>
<path d="M56.7891 53.079C57.4607 52.7284 58.6113 52.5259 59.6039 52.8519" stroke="#6800FF" stroke-width="1.48148" stroke-miterlimit="10" stroke-linecap="round"/>
<path d="M57.1172 70.3555C57.9024 72.874 60.0406 72.6468 60.0406 72.6468" stroke="#002E9C" stroke-width="0.987654" stroke-linecap="round" stroke-linejoin="round"/>
<path d="M66.8828 30.3346C63.4606 29.3765 60.5519 28.6309 54.2112 26.5568C43.8902 23.184 32.0038 24.7593 26.4581 32.6407C22.705 37.979 21.6186 44.1568 22.3297 50.2259C23.1544 57.2235 24.7346 63.4654 25.5791 66.4679C27.1495 72.0728 30.5371 69.0506 32.1174 69.1296C33.7025 69.2086 36.7544 72.4185 39.5297 69.1296C42.3001 65.8407 42.6902 67.179 43.0803 62.0531C43.4754 56.9272 44.3692 52.7938 45.4606 53.3123C46.5519 53.8358 44.1124 59.1099 44.3445 68.7543C44.5766 78.3049 51.5643 81.7469 56.6359 81.7469C61.7075 81.7469 62.3198 75.1642 60.8729 73.2333C60.5766 74.0136 60.0137 74.937 59.3025 75.5741C58.7445 76.0679 54.8877 75.4309 52.626 71.7568C53.8704 70.2161 55.0951 69.2877 55.8754 69.0556C57.5643 68.5519 60.8927 69.7519 62.5717 71.1741C63.8803 70.3395 63.4655 68.7642 63.4902 68.6901C61.4211 67.0259 57.2087 65.7469 54.6803 66.4926C53.4556 66.858 52.2853 67.6136 51.184 68.7494C51.0704 68.3346 50.2951 68.058 49.8853 66.4926C48.2211 60.1519 49.826 49.184 51.263 48.5469C52.7001 47.9148 58.8383 48.1568 64.468 42.6111C66.705 40.4086 67.3421 40.0086 68.6853 38.0679C70.6507 35.2284 70.6013 31.3716 66.8877 30.3346H66.8828Z" fill="url(#paint4_linear_2315_7521)"/>
<path d="M66.8828 30.3346C63.4606 29.3765 60.5519 28.6309 54.2112 26.5568C43.8902 23.184 32.0038 24.7593 26.4581 32.6407C22.705 37.979 21.6186 44.1568 22.3297 50.2259C23.1544 57.2235 24.7346 63.4654 25.5791 66.4679C27.1495 72.0728 30.5371 69.0506 32.1174 69.1296C33.7025 69.2086 36.7544 72.4185 39.5297 69.1296C42.3001 65.8407 42.6902 67.179 43.0803 62.0531C43.4754 56.9272 44.3692 52.7938 45.4606 53.3123C46.5519 53.8358 44.1124 59.1099 44.3445 68.7543C44.5766 78.3049 51.5643 81.7469 56.6359 81.7469C61.7075 81.7469 62.3198 75.1642 60.8729 73.2333C60.5766 74.0136 60.0137 74.937 59.3025 75.5741C58.7445 76.0679 54.8877 75.4309 52.626 71.7568C53.8704 70.2161 55.0951 69.2877 55.8754 69.0556C57.5643 68.5519 60.8927 69.7519 62.5717 71.1741C63.8803 70.3395 63.4655 68.7642 63.4902 68.6901C61.4211 67.0259 57.2087 65.7469 54.6803 66.4926C53.4556 66.858 52.2853 67.6136 51.184 68.7494C51.0704 68.3346 50.2951 68.058 49.8853 66.4926C48.2211 60.1519 49.826 49.184 51.263 48.5469C52.7001 47.9148 58.8383 48.1568 64.468 42.6111C66.705 40.4086 67.3421 40.0086 68.6853 38.0679C70.6507 35.2284 70.6013 31.3716 66.8877 30.3346H66.8828Z" fill="url(#paint5_radial_2315_7521)"/>
<path d="M66.8964 30.6998C63.4742 29.7418 60.605 29.0059 54.2643 26.9368C43.9433 23.564 32.0026 24.759 26.4569 32.6455C22.7038 37.9837 22.047 44.1615 22.7631 50.2306C23.5878 57.2282 25.168 63.4701 26.0124 66.4726" stroke="url(#paint6_linear_2315_7521)" stroke-width="0.740741" stroke-linecap="round" stroke-linejoin="round"/>
<path d="M45.4758 53.4522C45.4758 53.4522 41.0214 49.3584 39.1202 52.6868C37.3573 55.7732 39.1844 62.8201 43.9498 61.4818C44.3202 61.3781 45.4708 53.4571 45.4708 53.4571L45.4758 53.4522Z" fill="#B18078"/>
<path d="M43.1217 53.9918C40.5192 53.7104 39.6155 57.3844 42.8402 59.4733" stroke="#72433D" stroke-width="0.987654" stroke-linecap="round" stroke-linejoin="round"/>
<path d="M26.5469 48.3555C26.6851 49.3135 26.7592 49.8172 26.9024 50.7752" stroke="#002E9C" stroke-width="0.740741" stroke-linecap="round" stroke-linejoin="round"/>
<path d="M29.9531 50.5977C30.0766 51.4372 30.0173 51.0174 30.1408 51.8569" stroke="#002E9C" stroke-width="0.740741" stroke-linecap="round" stroke-linejoin="round"/>
<path d="M28.1328 56.0391L28.3254 57.0761" stroke="#002E9C" stroke-width="0.740741" stroke-linecap="round" stroke-linejoin="round"/>
<path d="M31.1875 58.1992L31.385 59.2363" stroke="#002E9C" stroke-width="0.740741" stroke-linecap="round" stroke-linejoin="round"/>
<path d="M34.3359 59.5078C34.41 60.0461 34.3754 59.7745 34.4495 60.3127" stroke="#002E9C" stroke-width="0.740741" stroke-linecap="round" stroke-linejoin="round"/>
<path d="M25.3984 53.8359L25.6503 54.7248" stroke="#002E9C" stroke-width="0.740741" stroke-linecap="round" stroke-linejoin="round"/>
<path d="M27.0312 61.0312C27.2387 61.9251 27.0708 61.209 27.2782 62.1029" stroke="#002E9C" stroke-width="0.740741" stroke-linecap="round" stroke-linejoin="round"/>
<path d="M32.3672 62.9258C32.4413 63.8245 32.4018 63.3752 32.4758 64.2739" stroke="#002E9C" stroke-width="0.740741" stroke-linecap="round" stroke-linejoin="round"/>
<path d="M29.7656 61.4062C29.9878 62.1667 29.9039 61.6828 29.9483 62.4729" stroke="#002E9C" stroke-width="0.740741" stroke-linecap="round" stroke-linejoin="round"/>
<path d="M40 54.2621C40.721 52.9139 42.0741 53.2695 42.4741 53.4522C43.6198 53.9707 44.1284 54.9732 44.3457 55.8423" stroke="#72433D" stroke-width="0.987654" stroke-linecap="round" stroke-linejoin="round"/>
<path d="M86.5326 159.743C87.6387 159.595 88.74 159.427 89.8264 159.245C90.2659 154.583 91.2881 142.109 89.5696 142.395C84.8585 135.333 81.3918 128.059 73.8313 114.059C66.3992 100.296 62.1721 90.0149 55.5548 86.6618C39.3276 78.4544 20.4881 76.8149 13.9795 91.2988C10.2807 99.5309 6.9375 116.212 6.9375 116.212C9.52515 121.975 12.8387 127.299 16.8585 131.911C36.2215 154.124 58.2363 159.664 77.9449 159.985C80.8091 159.956 83.6733 159.877 86.5276 159.743H86.5326Z" fill="#1E8FFF"/>
<path opacity="0.25" d="M60.905 159.49C65.4384 159.806 69.9618 159.969 74.4754 159.994L53.8828 129.762L60.91 159.49H60.905Z" fill="#002E9C"/>
<path d="M89.5743 142.396C84.8632 135.334 81.3965 128.06 73.836 114.06C66.4039 100.297 61.0706 87.3736 53.757 86.1341C36.9126 83.2748 36.5373 98.5292 40.5373 105.329C42.8385 109.24 65.8607 152.188 73.4064 159.813C74.9175 159.902 76.4138 159.956 77.9002 159.981C80.794 159.951 83.6829 159.867 86.5669 159.734C100.083 157.897 112.384 153.492 122.759 147.028C119.115 146.401 113.026 145.749 107.011 144.865C99.2829 143.729 91.678 142.04 89.5743 142.391V142.396Z" fill="#1E8FFF"/>
<path d="M49.0953 119.834C48.9767 119.621 48.7101 119.547 48.4977 119.666C48.2854 119.784 48.2113 120.051 48.3298 120.263C60.7891 142.569 69.0656 155.923 72.9521 159.977C73.3076 159.977 73.6632 159.987 74.0187 159.987C74.0187 159.873 73.9743 159.76 73.8854 159.671C70.2064 156.105 61.8656 142.703 49.0953 119.834Z" fill="#0050FB"/>
<path d="M115.087 145.517C112.613 145.196 109.808 144.835 107.072 144.435C104.411 144.045 101.724 143.581 99.3539 143.171C94.944 142.41 91.4082 141.798 89.7884 141.931C86.4946 136.959 83.8131 131.892 79.7835 124.277C78.1785 121.25 76.3662 117.818 74.223 113.852C73.4032 112.336 72.6032 110.83 71.8082 109.344C65.2946 97.1166 59.665 86.5537 53.3144 86.0796C53.0674 86.0598 52.86 86.2426 52.8452 86.4845C52.8255 86.7265 53.0082 86.9388 53.2502 86.9537C59.1218 87.3932 64.6427 97.7537 71.0378 109.754C71.8279 111.24 72.6329 112.751 73.4526 114.267C75.5909 118.228 77.4082 121.66 79.0082 124.687C83.1119 132.44 85.823 137.556 89.2106 142.643C89.3045 142.786 89.4773 142.86 89.6502 142.83C90.9588 142.613 94.781 143.275 99.2106 144.035C101.586 144.445 104.282 144.909 106.954 145.304C109.695 145.704 112.504 146.07 114.983 146.386C117.645 146.726 120.218 147.062 122.198 147.383C122.574 147.151 122.949 146.919 123.324 146.682C121.438 146.341 118.702 145.981 115.097 145.517H115.087Z" fill="url(#paint7_linear_2315_7521)"/>
<g opacity="0.8">
<path d="M121.742 32.8884C124.029 33.2933 124.355 33.6192 124.759 35.9057C125.164 33.6192 125.49 33.2933 127.777 32.8884C125.49 32.4834 125.164 32.1575 124.759 29.8711C124.355 32.1575 124.029 32.4834 121.742 32.8884Z" fill="white"/>
</g>
<g opacity="0.8">
<path d="M5.25781 76.5921C8.11213 77.0958 8.52201 77.5057 9.02571 80.36C9.52942 77.5057 9.93929 77.0958 12.7936 76.5921C9.93929 76.0884 9.52942 75.6785 9.02571 72.8242C8.52201 75.6785 8.11213 76.0884 5.25781 76.5921Z" fill="white"/>
</g>
<path d="M135.961 29.8706C140.208 30.6212 140.815 31.2286 141.566 35.4755C142.316 31.2286 142.924 30.6212 147.171 29.8706C142.924 29.1199 142.316 28.5125 141.566 24.2656C140.815 28.5125 140.208 29.1199 135.961 29.8706Z" fill="white"/>
</g>
<defs>
<linearGradient id="paint0_linear_2315_7521" x1="80.2483" y1="0" x2="80.2483" y2="160.004" gradientUnits="userSpaceOnUse">
<stop stop-color="#070071"/>
<stop offset="1" stop-color="#570AC8"/>
</linearGradient>
<linearGradient id="paint1_linear_2315_7521" x1="119.285" y1="130.354" x2="119.285" y2="112.221" gradientUnits="userSpaceOnUse">
<stop offset="0.56" stop-color="#927AFF"/>
<stop offset="1" stop-color="#5A36FF"/>
</linearGradient>
<linearGradient id="paint2_linear_2315_7521" x1="158.51" y1="75.6983" x2="81.3594" y2="75.6983" gradientUnits="userSpaceOnUse">
<stop stop-color="#A490FF"/>
<stop offset="1" stop-color="#6341FF"/>
</linearGradient>
<linearGradient id="paint3_linear_2315_7521" x1="83.331" y1="46.7587" x2="155.262" y2="46.7587" gradientUnits="userSpaceOnUse">
<stop stop-color="#0089FF"/>
<stop offset="1" stop-color="#6800FF"/>
</linearGradient>
<linearGradient id="paint4_linear_2315_7521" x1="22.1272" y1="53.3173" x2="69.9742" y2="53.3173" gradientUnits="userSpaceOnUse">
<stop stop-color="#0089FF"/>
<stop offset="1" stop-color="#0050FB"/>
</linearGradient>
<radialGradient id="paint5_radial_2315_7521" cx="0" cy="0" r="1" gradientUnits="userSpaceOnUse" gradientTransform="translate(69.9346 57.0358) scale(55.2395 55.2395)">
<stop stop-color="#0050FB"/>
<stop offset="1" stop-color="#C500CB"/>
</radialGradient>
<linearGradient id="paint6_linear_2315_7521" x1="18.605" y1="59.5837" x2="57.4594" y2="20.7343" gradientUnits="userSpaceOnUse">
<stop stop-color="#46A7FF" stop-opacity="0"/>
<stop offset="0.02" stop-color="#5DA6F3" stop-opacity="0.13"/>
<stop offset="0.04" stop-color="#7EA5E2" stop-opacity="0.31"/>
<stop offset="0.07" stop-color="#9DA4D2" stop-opacity="0.47"/>
<stop offset="0.1" stop-color="#B7A3C5" stop-opacity="0.62"/>
<stop offset="0.13" stop-color="#CDA2B9" stop-opacity="0.74"/>
<stop offset="0.17" stop-color="#DFA2B0" stop-opacity="0.83"/>
<stop offset="0.21" stop-color="#EDA1A9" stop-opacity="0.91"/>
<stop offset="0.25" stop-color="#F7A1A4" stop-opacity="0.96"/>
<stop offset="0.31" stop-color="#FDA1A1" stop-opacity="0.99"/>
<stop offset="0.42" stop-color="#FFA1A1"/>
<stop offset="0.64" stop-color="#FDA1A1" stop-opacity="0.99"/>
<stop offset="0.72" stop-color="#F8A1A4" stop-opacity="0.97"/>
<stop offset="0.77" stop-color="#F0A1A8" stop-opacity="0.92"/>
<stop offset="0.82" stop-color="#E3A1AE" stop-opacity="0.85"/>
<stop offset="0.85" stop-color="#D3A2B6" stop-opacity="0.77"/>
<stop offset="0.89" stop-color="#C0A3C0" stop-opacity="0.66"/>
<stop offset="0.92" stop-color="#A8A3CC" stop-opacity="0.53"/>
<stop offset="0.95" stop-color="#8DA4DA" stop-opacity="0.39"/>
<stop offset="0.97" stop-color="#6DA5EA" stop-opacity="0.22"/>
<stop offset="1" stop-color="#46A7FF" stop-opacity="0"/>
</linearGradient>
<linearGradient id="paint7_linear_2315_7521" x1="53.6403" y1="87.2154" x2="76.3662" y2="112.025" gradientUnits="userSpaceOnUse">
<stop offset="0.01" stop-color="#1E8FFF"/>
<stop offset="0.35" stop-color="#1174FD"/>
<stop offset="0.76" stop-color="#0459FB"/>
<stop offset="1" stop-color="#0050FB"/>
</linearGradient>
<clipPath id="clip0_2315_7521">
<rect width="160" height="160" fill="white" transform="translate(0.25)"/>
</clipPath>
</defs>
</svg>
