<svg width="161" height="160" viewBox="0 0 161 160" fill="none" xmlns="http://www.w3.org/2000/svg">
<g clip-path="url(#clip0_2315_7354)">
<path d="M75.3684 159.867C96.8944 160.845 122.223 157.063 144.144 131.912C160.964 112.618 165.522 80.9588 155.443 56.4453C138.909 16.2576 111.981 -0.132527 78.3265 0.000806456C59.6894 0.0748805 41.5808 6.56871 25.4919 21.428C-3.91056 48.5835 -8.19698 94.6379 18.5191 129.354C31.0919 145.69 51.3536 156.83 75.3684 159.867Z" fill="url(#paint0_linear_2315_7354)" fill-opacity="0.7"/>
<path d="M25.4465 102.512H22.5625V134.24H25.4465V102.512Z" fill="#140B5A"/>
<path d="M105.297 156.996C116.645 153.904 128.146 147.993 138.981 137.391C131.307 138.24 110.413 149.959 110.413 149.959C110.413 149.959 108.206 152.852 105.297 156.991V156.996Z" fill="#0020FA"/>
<path d="M65.9497 96.8595C67.4262 89.4323 78.5867 73.8373 78.5867 73.8373C78.5867 73.8373 91.4509 59.2941 108.794 62.1434C126.137 64.9928 133.964 104.939 133.806 108.124C133.648 111.309 147.461 135.664 147.461 135.664C147.461 135.664 132.809 153.235 112.083 149.961C91.362 146.687 70.4682 112.785 70.4682 112.785C70.4682 112.785 64.4682 104.282 65.9447 96.8546L65.9497 96.8595Z" fill="#1E8FFF" stroke="#0050FB" stroke-width="1.04691" stroke-miterlimit="10"/>
<path d="M65.9497 96.8595C67.4262 89.4323 78.5867 73.8373 78.5867 73.8373C78.5867 73.8373 91.4509 59.2941 108.794 62.1434C126.137 64.9928 133.964 104.939 133.806 108.124C133.648 111.309 147.461 135.664 147.461 135.664C147.461 135.664 132.809 153.235 112.083 149.961C91.362 146.687 70.4682 112.785 70.4682 112.785C70.4682 112.785 64.4682 104.282 65.9447 96.8546L65.9497 96.8595Z" fill="url(#paint1_linear_2315_7354)" stroke="#0050FB" stroke-width="1.04691" stroke-miterlimit="10"/>
<path d="M65.9453 96.8592C67.4219 89.4321 78.5823 73.837 78.5823 73.837C78.5823 73.837 81.7182 70.2913 86.9774 67.0469" stroke="url(#paint2_linear_2315_7354)" stroke-width="1.04691" stroke-linecap="round" stroke-linejoin="round"/>
<path d="M83.6442 73.971C83.6442 73.971 79.9109 82.9636 87.6344 84.2821C95.3578 85.6006 102.158 74.6229 101.634 70.6476C101.397 68.8698 96.6615 65.1216 92.7208 66.1932C87.8615 67.5167 83.6442 73.971 83.6442 73.971Z" fill="white"/>
<path d="M67.4466 20.9115C46.6021 23.7856 49.0021 48.6992 53.8762 54.3387C59.4466 56.798 61.2194 55.0498 62.6565 55.8893C67.3281 64.156 61.4565 76.7338 61.4565 76.7338C61.4565 76.7338 70.4392 81.2869 77.5058 72.9017C85.2935 71.2227 90.6812 69.3066 90.6812 69.3066C90.6812 69.3066 90.7997 73.8597 90.5626 75.1782C90.3256 76.4967 109.249 71.1041 110.207 56.3733C110.987 44.4128 98.4688 19.7214 84.691 16.6054C72.4293 13.835 69.7478 20.556 67.4416 20.9165L67.4466 20.9115Z" fill="url(#paint3_linear_2315_7354)"/>
<path d="M67.4466 20.9115C46.6021 23.7856 49.0021 48.6992 53.8762 54.3387C59.4466 56.798 61.2194 55.0498 62.6565 55.8893C67.3281 64.156 61.4565 76.7338 61.4565 76.7338C61.4565 76.7338 70.4392 81.2869 77.5058 72.9017C85.2935 71.2227 90.6812 69.3066 90.6812 69.3066C90.6812 69.3066 90.7997 73.8597 90.5626 75.1782C90.3256 76.4967 109.249 71.1041 110.207 56.3733C110.987 44.4128 98.4688 19.7214 84.691 16.6054C72.4293 13.835 69.7478 20.556 67.4416 20.9165L67.4466 20.9115Z" fill="url(#paint4_radial_2315_7354)"/>
<path d="M67.2139 23.9844C67.2139 23.9844 65.3769 29.8659 70.6806 36.9572" stroke="#0059FC" stroke-width="1.04691" stroke-linecap="round" stroke-linejoin="round"/>
<path d="M66.8941 21.5273C46.8496 24.8755 49.062 48.7767 53.8768 54.3422C59.4471 56.8014 61.22 55.0533 62.657 55.8928C67.3286 64.1594 61.457 76.7372 61.457 76.7372C61.457 76.7372 70.4397 81.2903 77.5064 72.9051" stroke="url(#paint5_linear_2315_7354)" stroke-width="0.785185" stroke-linecap="round" stroke-linejoin="round"/>
<path d="M59.0859 49.8949C62.439 56.2456 72.3551 73.7122 80.918 73.6875C87.9156 73.6678 90.681 69.3073 90.681 69.3073C90.681 64.2752 87.6588 48.2456 84.2119 42.2357C82.1279 40.369 74.3551 41.0011 72.3551 38.6406C66.4835 46.9468 62.0835 48.5764 59.0859 49.8949Z" fill="white"/>
<path d="M83.9126 59.1953C84.7126 61.4719 83.557 63.3435 82.7422 64.3064" stroke="#0050FB" stroke-width="1.04691" stroke-linecap="round" stroke-linejoin="round"/>
<path d="M72.2344 54.4531C72.8319 55.7124 73.6566 58.7988 73.6418 60.8926C73.627 62.9865 75.1381 63.5889 76.3331 63.1395C77.5331 62.6852 78.5801 61.6383 78.5801 61.6383" stroke="#0050FB" stroke-width="1.04691" stroke-linecap="round" stroke-linejoin="round"/>
<path d="M80.2502 52.5425C80.7982 52.2261 80.8489 51.288 80.3634 50.4471C79.8779 49.6063 79.0402 49.1811 78.4922 49.4975C77.9442 49.8138 77.8935 50.752 78.379 51.5928C78.8645 52.4337 79.7022 52.8588 80.2502 52.5425Z" fill="#000D43"/>
<path d="M68.6814 58.6268C69.194 58.3309 69.2502 57.4688 68.807 56.7011C68.3638 55.9335 67.589 55.5511 67.0765 55.847C66.5639 56.1429 66.5077 57.0051 66.9509 57.7727C67.3941 58.5404 68.1689 58.9228 68.6814 58.6268Z" fill="#000D43"/>
<path d="M76.2188 46.7127C77.7792 45.004 80.199 45.3151 80.199 45.3151" stroke="#0059FC" stroke-width="1.19506" stroke-miterlimit="10" stroke-linecap="round"/>
<path d="M63.8047 53.8969C64.8565 52.1734 66.98 52.0352 66.98 52.0352" stroke="#0059FC" stroke-width="1.06173" stroke-miterlimit="10" stroke-linecap="round"/>
<path d="M87.6328 72.3398C87.6328 72.3398 89.4205 75.5398 88.5266 77.2139" stroke="#002E9C" stroke-width="1.04691" stroke-linecap="round" stroke-linejoin="round"/>
<path opacity="0.8" d="M20.3611 91.0624H70.4549L82.7117 120.262L116.796 116.904L95.9956 43.1562L0.820312 50.0896L20.3611 91.0624Z" fill="url(#paint6_radial_2315_7354)"/>
<path opacity="0.5" d="M117.979 107.521C115.426 111.037 116.863 128.444 116.863 128.444C116.863 128.444 93.3865 113.432 89.7124 113.111C86.0383 112.79 80.3494 116.785 78.3741 120.138C76.3988 123.491 74.6902 129.56 75.979 132.118C77.2679 134.672 80.4334 135.472 83.0062 134.992C85.5791 134.513 86.8383 130.518 86.8383 130.518C86.8383 130.518 89.6581 128.923 92.1074 125.565C112.784 145.442 119.875 149.042 126.685 147.605C133.495 146.168 136.186 112.627 133.475 105.442C130.759 98.2567 120.537 104.005 117.984 107.516L117.979 107.521Z" fill="#0050FB"/>
<path d="M115.432 105.079C112.879 108.596 114.316 126.003 114.316 126.003C114.316 126.003 90.8396 110.991 87.1655 110.67C83.4914 110.349 77.8025 114.344 75.8272 117.697C73.8519 121.05 72.1433 127.119 73.4322 129.677C74.7211 132.23 77.8865 133.03 80.4593 132.551C83.0322 132.072 84.2914 128.077 84.2914 128.077C84.2914 128.077 87.1112 126.482 89.5606 123.124C110.237 143 117.328 146.6 124.138 145.163C130.948 143.726 133.64 110.186 130.928 103C128.212 95.8153 117.99 101.563 115.437 105.075L115.432 105.079Z" fill="white" stroke="#002E9C" stroke-width="1.04691" stroke-miterlimit="10"/>
<path d="M79.8064 118.539C75.4953 122.213 74.6953 129.24 74.6953 129.24" stroke="#2E9EFF" stroke-width="1.04691" stroke-linecap="round" stroke-linejoin="round"/>
<path d="M82.7177 120.262C78.0264 123.437 76.4609 130.336 76.4609 130.336" stroke="#2E9EFF" stroke-width="1.04691" stroke-linecap="round" stroke-linejoin="round"/>
<path d="M86.1064 122.074C81.0792 124.682 78.7188 131.348 78.7188 131.348" stroke="#2E9EFF" stroke-width="1.04691" stroke-linecap="round" stroke-linejoin="round"/>
<path d="M114.32 126.004C117.352 128.078 119.634 129.53 119.634 129.53" stroke="url(#paint7_linear_2315_7354)" stroke-width="1.04691" stroke-linecap="round" stroke-linejoin="round"/>
<path d="M79.4995 87.0352C79.1785 87.8352 74.0674 119.776 74.2304 121.213" stroke="#0050FB" stroke-width="1.04691" stroke-linecap="round" stroke-linejoin="round"/>
<path d="M83.5147 125.035L28.2456 125.549C27.8999 125.544 27.5888 125.327 27.4653 125.006L14.7197 91.7662C14.1666 90.6156 15.7024 89.6131 16.3049 89.623L70.4579 89.1094C70.8036 89.1143 71.1147 89.3316 71.2382 89.6526L84.3197 123.88C84.532 124.443 84.1123 125.04 83.5147 125.03V125.035Z" fill="#FFE4C7"/>
<path d="M82.1767 126.581L28.5817 127.095C28.236 127.09 27.9249 126.872 27.8014 126.552L14.7199 92.3244C14.5076 91.7614 14.9273 91.1639 15.5249 91.1737L69.1199 90.6602C69.4656 90.6651 69.7767 90.8824 69.9002 91.2034L82.9817 125.431C83.194 125.993 82.7743 126.591 82.1767 126.581Z" fill="#FFB400"/>
<path d="M46.4475 106.484C46.4475 106.43 46.4277 106.376 46.3833 106.336L45.8302 105.783L48.0524 103.561C48.6746 102.939 48.6746 101.926 48.0524 101.304L47.8104 101.062C47.6129 100.865 47.2969 100.865 47.1043 101.062C46.9067 101.26 46.9067 101.576 47.1043 101.768L47.3462 102.01C47.5783 102.242 47.5783 102.623 47.3462 102.85L45.124 105.072L44.5166 105.679L43.8894 106.302C43.8499 106.341 43.8253 106.396 43.8203 106.455C43.8203 106.514 43.8351 106.563 43.8746 106.603C43.9141 106.642 43.9833 106.667 44.0771 106.667L46.1759 106.692C46.2598 106.702 46.324 106.682 46.3783 106.628C46.4228 106.583 46.4425 106.534 46.4425 106.479L46.4475 106.484Z" fill="white"/>
<path d="M43.6419 101.948C43.6419 102.002 43.6617 102.057 43.7061 102.096L44.2592 102.649L42.037 104.872C41.4148 105.494 41.4148 106.506 42.037 107.128L42.279 107.37C42.4765 107.568 42.7925 107.568 42.9851 107.37C43.1827 107.173 43.1827 106.857 42.9851 106.664L42.7432 106.422C42.5111 106.19 42.5111 105.81 42.7432 105.583L44.9654 103.36L45.5728 102.753L46.195 102.131C46.2345 102.091 46.2592 102.037 46.2641 101.978C46.2641 101.919 46.2493 101.869 46.2098 101.83C46.1703 101.79 46.1012 101.765 46.0073 101.765L43.9086 101.741C43.8246 101.731 43.7604 101.751 43.7061 101.805C43.6617 101.849 43.6419 101.894 43.6419 101.953V101.948Z" fill="white"/>
<path d="M70.4609 89.1104C70.8066 89.1154 71.1177 89.3327 71.2412 89.6537L84.3227 123.881C84.535 124.439 84.1251 125.031 83.5325 125.031C83.5325 125.031 83.5227 125.031 83.5177 125.031H82.8412L82.9893 125.426C83.2017 125.985 82.7918 126.577 82.1992 126.577C82.1992 126.577 82.1893 126.577 82.1844 126.577L28.5893 127.091C28.2436 127.086 27.9325 126.868 27.8091 126.547L14.7276 92.3203C14.6535 92.1228 14.6585 91.9203 14.7227 91.7425C14.1992 90.6067 15.7004 89.6191 16.3029 89.6191C16.3029 89.6191 16.3078 89.6191 16.3128 89.6191L70.4659 89.1055M70.4659 88.0586H70.456L16.3128 88.5722C16.3128 88.5722 16.3078 88.5722 16.3029 88.5722C15.498 88.5722 14.4609 89.2043 13.9473 90.0092C13.5819 90.582 13.4733 91.2141 13.6362 91.8166C13.6066 92.1129 13.6412 92.4141 13.7498 92.6956L26.8313 126.923C27.1078 127.654 27.7943 128.128 28.5745 128.143C28.5794 128.143 28.5844 128.143 28.5893 128.143H28.5992L82.1844 127.629C82.1844 127.629 82.1943 127.629 82.1992 127.629C82.8214 127.629 83.4091 127.323 83.7597 126.809C83.9276 126.567 84.0313 126.291 84.0757 126.004C84.4856 125.881 84.8461 125.624 85.098 125.264C85.4535 124.75 85.5325 124.093 85.3054 123.51L72.2239 89.2833C71.9473 88.5524 71.2609 88.0734 70.4807 88.0635C70.4757 88.0635 70.4708 88.0635 70.4659 88.0635V88.0586Z" fill="url(#paint8_linear_2315_7354)"/>
<path d="M97.8695 154.356C97.8695 154.356 48.0621 108.129 30.7929 108.129C24.9608 108.129 20.2349 115.68 15.5781 125.299C16.5164 126.667 17.4892 128.02 18.5213 129.359C23.3658 135.655 29.3608 141.176 36.2695 145.763L41.0448 133.521C41.0448 133.521 48.3238 144.307 57.6078 155.951C63.2374 157.763 69.1831 159.092 75.3757 159.872C82.7929 160.208 90.6645 159.981 98.6892 158.504C98.2744 155.996 97.8794 154.361 97.8794 154.361L97.8695 154.356Z" fill="url(#paint9_linear_2315_7354)"/>
<path d="M59.0865 131.117L57.3828 137.107" stroke="#FF00FF" stroke-width="0.330864" stroke-miterlimit="10"/>
<path d="M59.0859 49.8945C62.439 56.2451 71.7971 73.7118 80.36 73.6871C85.3131 73.6723 88.4193 71.4847 89.8168 70.2056" stroke="#002E9C" stroke-width="1.04691" stroke-linecap="round" stroke-linejoin="round"/>
<path d="M84.6439 55.1994C87.6034 52.6593 87.7647 47.993 85.0043 44.7769C82.2439 41.5608 77.6071 41.0129 74.6476 43.553C71.6882 46.0932 71.5268 50.7595 74.2872 53.9756C77.0476 57.1916 81.6845 57.7396 84.6439 55.1994Z" stroke="#FF5F5F" stroke-width="1.04691" stroke-linecap="round" stroke-linejoin="round"/>
<path d="M72.336 49.3597C72.2422 48.1745 72.4298 46.9992 72.8891 45.9375" stroke="#FFB500" stroke-width="1.04691" stroke-linecap="round" stroke-linejoin="round"/>
<path d="M69.896 62.9396C72.2291 61.0623 72.2633 57.2323 69.9723 54.3849C67.6813 51.5375 63.9327 50.751 61.5996 52.6283C59.2664 54.5055 59.2322 58.3356 61.5232 61.183C63.8142 64.0304 67.5628 64.8168 69.896 62.9396Z" stroke="#FF5F5F" stroke-width="1.04691" stroke-linecap="round" stroke-linejoin="round"/>
<path d="M71.6422 58.3555C71.736 59.3481 71.6027 60.311 71.2422 61.1555" stroke="#FF9A9A" stroke-width="1.04691" stroke-linecap="round" stroke-linejoin="round"/>
<path d="M69.9062 54.2434C69.9062 53.0978 72.3902 51.6607 73.1853 52.2434" stroke="#FF5F5F" stroke-width="1.04691" stroke-linejoin="round"/>
<path d="M111.761 84.3888C110.24 92.1468 111.761 103.964 110.961 110.833C122.941 115.144 137.312 103.327 137.312 103.327C137.312 103.327 129.262 87.0802 126.181 80.9271C123.104 74.774 113.282 76.6357 111.756 84.3888H111.761Z" fill="#1E8FFF"/>
<path d="M124.727 77.9688C129.596 85.2329 135.112 101.732 137.319 103.327C137.319 104.626 122.944 115.144 110.969 110.833C111.769 103.964 110.243 92.1465 111.769 84.3885" stroke="#0050FB" stroke-width="1.04691" stroke-linecap="round" stroke-linejoin="round"/>
<path d="M60.104 58.4839C59.6842 57.0419 59.7435 55.5703 60.2818 54.3555" stroke="#FFCE00" stroke-width="1.04691" stroke-linecap="round" stroke-linejoin="round"/>
<path d="M89.3281 56.7587C91.901 69.3908 91.0368 72.492 90.7701 75.0106C90.5281 76.3291 108.824 70.8871 109.782 56.1562" stroke="url(#paint10_linear_2315_7354)" stroke-width="0.785185" stroke-linecap="round" stroke-linejoin="round"/>
<path d="M110.407 149.96C110.407 149.96 73.0191 104.123 53.5475 105.239C41.9524 105.905 32.7524 122.207 25.8438 137.461C32.7524 144.034 41.1178 149.426 50.5647 153.352L55.7055 137.105C55.7055 137.105 61.7252 147.673 69.266 158.898C71.2709 159.278 73.3055 159.599 75.3647 159.861C88.545 160.459 103.152 159.273 117.533 152.488C113.449 150.878 110.407 149.96 110.407 149.96Z" fill="#0020FA"/>
<g filter="url(#filter0_d_2315_7354)">
<path d="M120.249 17.418H148.777C151.469 17.418 153.652 19.6007 153.652 22.292V40.6229C153.652 43.3143 151.469 45.497 148.777 45.497H131.726L122.837 52.8402V45.497H120.249C117.558 45.497 115.375 43.3143 115.375 40.6229V22.292C115.375 19.6007 117.558 17.418 120.249 17.418Z" fill="white"/>
</g>
<path d="M121.953 27.6094H146.185" stroke="#4F65FC" stroke-width="0.987654" stroke-linecap="round" stroke-linejoin="round"/>
<path d="M121.953 31.5117H146.185" stroke="#4F65FC" stroke-width="0.987654" stroke-linecap="round" stroke-linejoin="round"/>
<path d="M121.953 35.418H131.751" stroke="#4F65FC" stroke-width="0.987654" stroke-linecap="round" stroke-linejoin="round"/>
<g filter="url(#filter1_d_2315_7354)">
<path d="M37.1212 47.0508H8.59282C5.90147 47.0508 3.71875 49.2335 3.71875 51.9249V67.2928C3.71875 69.9841 5.90147 72.1668 8.59282 72.1668H25.6447L34.5336 79.51V72.1668H37.1212C39.8126 72.1668 41.9953 69.9841 41.9953 67.2928V51.9249C41.9953 49.2335 39.8126 47.0508 37.1212 47.0508Z" fill="white"/>
</g>
<path d="M35.4196 57.2461H11.1875" stroke="#4F65FC" stroke-width="0.987654" stroke-linecap="round" stroke-linejoin="round"/>
<path d="M26.5554 61.1445H11.1875" stroke="#4F65FC" stroke-width="0.987654" stroke-linecap="round" stroke-linejoin="round"/>
<path d="M137 68.0173C139.286 68.4222 139.612 68.7481 140.017 71.0346C140.422 68.7481 140.748 68.4222 143.035 68.0173C140.748 67.6123 140.422 67.2864 140.017 65C139.612 67.2864 139.286 67.6123 137 68.0173Z" fill="white"/>
<path d="M27 31.7679C29.8543 32.2716 30.2642 32.6815 30.7679 35.5358C31.2716 32.6815 31.6815 32.2716 34.5358 31.7679C31.6815 31.2642 31.2716 30.8543 30.7679 28C30.2642 30.8543 29.8543 31.2642 27 31.7679Z" fill="white"/>
<path d="M140.086 83.8432C144.333 84.5938 144.94 85.2012 145.691 89.4482C146.441 85.2012 147.049 84.5938 151.296 83.8432C147.049 83.0926 146.441 82.4852 145.691 78.2383C144.94 82.4852 144.333 83.0926 140.086 83.8432Z" fill="white"/>
</g>
<defs>
<filter id="filter0_d_2315_7354" x="114.224" y="16.2674" width="45.9376" height="43.0861" filterUnits="userSpaceOnUse" color-interpolation-filters="sRGB">
<feFlood flood-opacity="0" result="BackgroundImageFix"/>
<feColorMatrix in="SourceAlpha" type="matrix" values="0 0 0 0 0 0 0 0 0 0 0 0 0 0 0 0 0 0 127 0" result="hardAlpha"/>
<feOffset dx="2.68148" dy="2.68148"/>
<feGaussianBlur stdDeviation="1.91605"/>
<feColorMatrix type="matrix" values="0 0 0 0 0 0 0 0 0 0 0 0 0 0 0 0 0 0 0.2 0"/>
<feBlend mode="normal" in2="BackgroundImageFix" result="effect1_dropShadow_2315_7354"/>
<feBlend mode="normal" in="SourceGraphic" in2="effect1_dropShadow_2315_7354" result="shape"/>
</filter>
<filter id="filter1_d_2315_7354" x="2.56813" y="45.9002" width="45.9376" height="40.1251" filterUnits="userSpaceOnUse" color-interpolation-filters="sRGB">
<feFlood flood-opacity="0" result="BackgroundImageFix"/>
<feColorMatrix in="SourceAlpha" type="matrix" values="0 0 0 0 0 0 0 0 0 0 0 0 0 0 0 0 0 0 127 0" result="hardAlpha"/>
<feOffset dx="2.68148" dy="2.68148"/>
<feGaussianBlur stdDeviation="1.91605"/>
<feColorMatrix type="matrix" values="0 0 0 0 0 0 0 0 0 0 0 0 0 0 0 0 0 0 0.2 0"/>
<feBlend mode="normal" in2="BackgroundImageFix" result="effect1_dropShadow_2315_7354"/>
<feBlend mode="normal" in="SourceGraphic" in2="effect1_dropShadow_2315_7354" result="shape"/>
</filter>
<linearGradient id="paint0_linear_2315_7354" x1="80.7495" y1="0" x2="80.7495" y2="160.004" gradientUnits="userSpaceOnUse">
<stop stop-color="#070071"/>
<stop offset="1" stop-color="#570AC8"/>
</linearGradient>
<linearGradient id="paint1_linear_2315_7354" x1="31.1694" y1="108.998" x2="116.932" y2="105.847" gradientUnits="userSpaceOnUse">
<stop stop-color="#FF7BFF"/>
<stop offset="0.91" stop-color="#1E90FF"/>
</linearGradient>
<linearGradient id="paint2_linear_2315_7354" x1="65.4219" y1="81.9555" x2="87.5058" y2="81.9555" gradientUnits="userSpaceOnUse">
<stop stop-color="#FF5F5F"/>
<stop offset="0.2" stop-color="#FF7777"/>
<stop offset="0.61" stop-color="#FFB6B6"/>
<stop offset="1" stop-color="#FFF7F7"/>
</linearGradient>
<linearGradient id="paint3_linear_2315_7354" x1="50.5281" y1="46.951" x2="110.242" y2="46.951" gradientUnits="userSpaceOnUse">
<stop stop-color="#0089FF"/>
<stop offset="1" stop-color="#0050FB"/>
</linearGradient>
<radialGradient id="paint4_radial_2315_7354" cx="0" cy="0" r="1" gradientUnits="userSpaceOnUse" gradientTransform="translate(98.217 41.8103) scale(47.2543 47.2543)">
<stop stop-color="#0050FB"/>
<stop offset="1" stop-color="#C559CB"/>
</radialGradient>
<linearGradient id="paint5_linear_2315_7354" x1="50.4496" y1="66.2878" x2="81.3286" y2="35.4088" gradientUnits="userSpaceOnUse">
<stop offset="0.42" stop-color="#FFA1A1"/>
<stop offset="0.54" stop-color="#FDA1A1" stop-opacity="0.99"/>
<stop offset="0.62" stop-color="#F6A1A5" stop-opacity="0.96"/>
<stop offset="0.69" stop-color="#EBA1AA" stop-opacity="0.9"/>
<stop offset="0.75" stop-color="#DCA2B2" stop-opacity="0.81"/>
<stop offset="0.8" stop-color="#C8A2BC" stop-opacity="0.71"/>
<stop offset="0.85" stop-color="#B0A3C8" stop-opacity="0.58"/>
<stop offset="0.9" stop-color="#93A4D7" stop-opacity="0.42"/>
<stop offset="0.95" stop-color="#72A5E8" stop-opacity="0.24"/>
<stop offset="0.99" stop-color="#4DA6FB" stop-opacity="0.04"/>
<stop offset="1" stop-color="#46A7FF" stop-opacity="0"/>
</linearGradient>
<radialGradient id="paint6_radial_2315_7354" cx="0" cy="0" r="1" gradientUnits="userSpaceOnUse" gradientTransform="translate(54.1882 103.872) scale(49.2395 49.2395)">
<stop stop-color="#FF5F5F"/>
<stop offset="1" stop-color="#FF5F5F" stop-opacity="0"/>
</radialGradient>
<linearGradient id="paint7_linear_2315_7354" x1="113.797" y1="127.767" x2="120.157" y2="127.767" gradientUnits="userSpaceOnUse">
<stop offset="0.03" stop-color="#002E9C"/>
<stop offset="0.16" stop-color="#003BAA"/>
<stop offset="0.73" stop-color="#0070E7"/>
<stop offset="1" stop-color="#0186FF"/>
</linearGradient>
<linearGradient id="paint8_linear_2315_7354" x1="28.4511" y1="128.785" x2="70.2041" y2="87.0314" gradientUnits="userSpaceOnUse">
<stop offset="0.3" stop-color="#09319B"/>
<stop offset="0.31" stop-color="#373F96"/>
<stop offset="0.32" stop-color="#875A8D"/>
<stop offset="0.33" stop-color="#A8648A"/>
<stop offset="0.35" stop-color="#C36D87"/>
<stop offset="0.36" stop-color="#D97484"/>
<stop offset="0.37" stop-color="#EA7A83"/>
<stop offset="0.39" stop-color="#F67E81"/>
<stop offset="0.41" stop-color="#FD8081"/>
<stop offset="0.48" stop-color="#FF8181"/>
</linearGradient>
<linearGradient id="paint9_linear_2315_7354" x1="102.551" y1="133.136" x2="-37.8836" y2="135.966" gradientUnits="userSpaceOnUse">
<stop stop-color="#000D43"/>
<stop offset="1" stop-color="#0050FB"/>
</linearGradient>
<linearGradient id="paint10_linear_2315_7354" x1="99.5602" y1="75.5982" x2="99.5602" y2="55.7612" gradientUnits="userSpaceOnUse">
<stop stop-color="#FFA1A1"/>
<stop offset="0.19" stop-color="#FDA1A1" stop-opacity="0.99"/>
<stop offset="0.31" stop-color="#F6A1A5" stop-opacity="0.96"/>
<stop offset="0.41" stop-color="#EBA1AA" stop-opacity="0.9"/>
<stop offset="0.5" stop-color="#DCA2B2" stop-opacity="0.81"/>
<stop offset="0.58" stop-color="#C8A2BC" stop-opacity="0.71"/>
<stop offset="0.66" stop-color="#B0A3C8" stop-opacity="0.58"/>
<stop offset="0.74" stop-color="#93A4D7" stop-opacity="0.42"/>
<stop offset="0.81" stop-color="#72A5E8" stop-opacity="0.24"/>
<stop offset="0.88" stop-color="#4DA6FB" stop-opacity="0.04"/>
<stop offset="0.89" stop-color="#46A7FF" stop-opacity="0"/>
</linearGradient>
<clipPath id="clip0_2315_7354">
<rect width="160" height="160" fill="white" transform="translate(0.75)"/>
</clipPath>
</defs>
</svg>
